<?xml version="1.0" standalone="no"?>
<!DOCTYPE svg PUBLIC "-//W3C//DTD SVG 20010904//EN"
 "http://www.w3.org/TR/2001/REC-SVG-20010904/DTD/svg10.dtd">
<svg version="1.0" xmlns="http://www.w3.org/2000/svg"
 width="256.000000pt" height="256.000000pt" viewBox="0 0 256.000000 256.000000"
 preserveAspectRatio="xMidYMid meet">
<metadata>
Created by potrace 1.11, written by Peter Selinger 2001-2013
</metadata>
<g transform="translate(0.000000,256.000000) scale(0.100000,-0.100000)"
fill="#000000" stroke="none">
<path d="M235 2390 c-11 -4 -31 -20 -45 -35 l-25 -27 0 -1053 0 -1053 25 -22
c14 -12 18 -18 10 -14 -9 4 -12 3 -7 -2 9 -9 13 -10 43 -13 8 0 13 -4 11 -8
-6 -9 2008 -8 2055 1 18 3 47 18 63 32 l30 26 3 1040 c2 933 1 1043 -14 1073
-32 69 30 65 -1106 64 -562 0 -1032 -4 -1043 -9z"/>
</g>
</svg>
